{"title":"Saala Khadoos {2016} 1/5 Desi PDVDRip XviD MP3 {Team DUS} - jnmj","uid":13359754,"size":944017264,"categoryP":"video","categoryS":"movies","magnet":"?xt=urn:btih:23402a60d152e4ecf80d12c2d66ddc1f2020e2db&amp;dn=Saala+Khadoos+%7B2016%7D+1%2F5+Desi+PDVDRip+XviD+MP3+%7BTeam+DUS%7D+-+jnmj&amp;tr=udp%3A%2F%2Ftracker.leechers-paradise.org%3A6969&amp;tr=udp%3A%2F%2Fzer0day.ch%3A1337&amp;tr=udp%3A%2F%2Fopen.demonii.com%3A1337&amp;tr=udp%3A%2F%2Ftracker.coppersurfer.tk%3A6969&amp;tr=udp%3A%2F%2Fexodus.desync.com%3A6969","seeders":2,"leechers":0,"uploader":"makintos13","files":1,"time":1454123999,"description":"screens\r\n \nhttp://imgmak.com/K0L \nhttp://imgmak.com/K0X \nhttp://imgmak.com/KAC \nhttp://imgmak.com/KAK \nhttp://imgmak.com/KAT \nhttp://imgmak.com/KAa\r\n\r\nYear.............: 2015\r\nSource: A DUS Exclusive!\r\nRipper...........: jnmjy\r\n\r\n\r\nFormat                                   : AVI\r\nFormat/Info                              : Audio Video Interleave\r\nFile size                                : 900 MiB\r\nDuration                                 : 1h 43mn\r\nOverall bit rate mode                    : Variable\r\nOverall bit rate                         : 1 221 Kbps\r\n\r\nVideo\r\nID                                       : 0\r\nFormat                                   : MPEG-4 Visual\r\nFormat profile                           : Advanced   \r\nFormat settings, BVOP                    : 2\r\nFormat settings, QPel                    : No\r\nFormat settings, GMC                     : No warppoints\r\nFormat settings, Matrix                  : Default (H.263)\r\nCodec ID                                 : XVID\r\nCodec ID/Hint                            : XviD\r\nDuration                                 : 1h 43mn\r\nBit rate                                 : 1 118 Kbps\r\nWidth                                    : 640 pixels\r\nHeight                                   : 272 pixels\r\nDisplay aspect ratio                     : 2.35:1\r\nFrame rate                               : 23.976 fps\r\nColor space                              : YUV\r\nChroma subsampling                       : 4:2:0\r\nBit depth                                : 8 bits\r\nScan type                                : Progressive\r\nCompression mode                         : Lossy\r\nBits/(Pixel*Frame)                       : 0.268\r\nStream size                              : 825 MiB (92%)\r\nWriting library                          : XviD 67\r\n\r\nAudio\r\nID                                       : 1\r\nFormat                                   : MPEG Audio\r\nFormat version                           : Version 1\r\nFormat profile                           : Layer 3\r\nMode                                     : Joint stereo\r\nMode extension                           : MS Stereo\r\nCodec ID                                 : 55\r\nCodec ID/Hint                            : MP3\r\nDuration                                 : 1h 43mn\r\nBit rate mode                            : Variable\r\nBit rate                                 : 96.0 Kbps\r\nChannel(s)                               : 2 channels\r\nSampling rate                            : 32.0 KHz\r\nCompression mode                         : Lossy\r\nStream size                              : 68.1 MiB (8%)\r\nAlignment                                : Aligned on interleaves\r\nInterleave, duration                     : 36 ms (0.86 video frame)\r\nInterleave, preload duration             : 112 ms\r\nWriting library                          : LAME3.99r\r\nEncoding settings                        : -m j -V 4 -q 2 -lowpass 15.1 --abr 96","torrent":{"xt":"urn:btih:23402a60d152e4ecf80d12c2d66ddc1f2020e2db","amp;dn":"Saala+Khadoos+%7B2016%7D+1%2F5+Desi+PDVDRip+XviD+MP3+%7BTeam+DUS%7D+-+jnmj","amp;tr":["udp%3A%2F%2Ftracker.leechers-paradise.org%3A6969","udp%3A%2F%2Fzer0day.ch%3A1337","udp%3A%2F%2Fopen.demonii.com%3A1337","udp%3A%2F%2Ftracker.coppersurfer.tk%3A6969","udp%3A%2F%2Fexodus.desync.com%3A6969"],"infoHash":"23402a60d152e4ecf80d12c2d66ddc1f2020e2db","infoHashBuffer":{"type":"Buffer","data":[35,64,42,96,209,82,228,236,248,13,18,194,214,109,220,31,32,32,226,219]},"announce":[],"urlList":[]}}